<svg version="1.1" id="Layer_1" xmlns="http://www.w3.org/2000/svg" xmlns:xlink="http://www.w3.org/1999/xlink" x="0px" y="0px" width="500px" height="118px" viewBox="0 0 500 118" enable-background="new 0 0 500 118" xml:space="preserve">
<g>
	<path class="logo-path-a" d="M1.5,74.514h5.146V19.412H1.5V1h36.029v18.412h-4.238v17.749h14.532V19.412h-4.239V1h36.028v18.412h-5.146v55.102h5.146
		v18.411H43.584V74.514h4.239V54.646H33.291v19.868h4.238v18.411H1.5V74.514z"></path>
    <path class="logo-path-a" d="M108.847,94.779c-19.578,0-30.982-13.246-30.982-34.836c0-21.458,11.505-34.836,30.68-34.836
		c19.275,0,30.376,13.113,30.376,35.101c0,1.06,0,2.252-0.1,3.444h-36.534c0,9.536,3.633,14.968,10.092,14.968
		c4.339,0,7.065-2.518,8.174-7.418l18.166,3.18C135.591,87.361,125.298,94.779,108.847,94.779z M115.609,53.717v-1.589
		c0-7.02-2.523-10.993-6.762-10.993s-6.762,3.973-6.762,10.993v1.589H115.609z"></path>
    <path class="logo-path-a" d="M168.692,42.989c5.248-12.186,10.091-18.014,17.257-18.014c1.211,0,2.725,0.265,4.541,0.795v28.743
		c-2.724-1.722-5.349-2.517-8.174-2.517c-8.275,0-12.514,5.431-12.514,16.292v6.226h5.853v18.411h-34.414V74.514h4.138V45.108
		h-4.138V26.697h27.451V42.989z"></path>
    <path class="logo-path-a" d="M229.545,88.289c-5.349,4.371-10.799,6.623-17.056,6.623c-12.312,0-20.183-8.875-20.183-20.664
		c0-12.317,8.174-21.457,21.899-21.457c4.946,0,10.092,0.794,15.34,2.517v-5.562c0-7.286-2.826-11.26-7.974-11.26
		c-4.743,0-7.771,2.517-9.587,8.08l-18.468-0.662c0.403-13.775,9.991-20.795,28.459-20.795c22.91,0,32.397,6.358,32.397,25.034
		v24.372h4.844v18.411h-29.671V88.289z M229.646,67.625c-2.221-1.589-4.239-2.384-6.056-2.384c-4.037,0-6.762,3.312-6.762,8.079
		c0,4.504,2.22,7.153,5.854,7.153c2.422,0,4.743-1.324,6.964-4.106V67.625z"></path>
    <path class="logo-path-a" d="M262.041,19.279V1h28.963v73.514h4.945v18.411h-33.908V74.514h4.238V19.279H262.041z"></path>
    <path class="logo-path-a" d="M332.48,19.279V1h28.662v73.514h4.139v18.411h-28.965v-6.49c-5.045,5.166-10.293,7.55-16.148,7.55
		c-13.521,0-22.908-13.113-22.908-33.511c0-21.193,9.789-34.571,24.523-34.571c5.248,0,10.092,2.119,14.938,6.225V19.279H332.48z
		 M337.123,59.679c0-9.537-3.33-14.968-7.971-14.968c-4.846,0-8.074,5.431-8.074,14.968c0,9.669,3.229,15.1,8.074,15.1
		C333.895,74.778,337.123,69.348,337.123,59.679z"></path>
</g>
    <g>
	<path class="logo-path-b" d="M385.785,1.158c7.785,22.674,18.662,51.227,25.381,70.541h0.426c2.453-14.416,8.957-51.647,9.598-59.904
		c0.32-4.479-0.746-6.159-3.732-6.438l-5.225-0.42l0.639-3.778h23.141l-0.639,3.778l-3.414,0.42
		c-2.559,0.279-4.371,1.959-5.438,6.438c-2.559,10.497-11.838,65.783-14.396,81.179h-9.385
		c-8.104-24.354-17.488-50.808-26.02-75.721h-0.426c-3.305,18.895-9.916,59.624-10.236,65.082c-0.428,4.34,0.852,6.158,3.838,6.3
		l4.906,0.56l-0.533,3.779h-23.781l0.641-3.779l3.945-0.42c2.559-0.281,4.158-1.96,5.225-6.439
		c2.559-10.216,9.385-50.246,12.584-69.701c0.746-4.619,0.107-6.579-2.666-6.999l-5.652-0.7l0.746-3.778H385.785z"></path>
        <path class="logo-path-b" d="M462.35,73.52c-7.25,16.655-16.42,21.134-25.592,21.134c-7.145,0-15.676-4.339-15.676-22.533
		c0-10.358,2.561-21.976,7.998-30.793c5.439-8.958,12.689-14.556,22.5-14.556c8.959,0,13.117,5.598,13.117,14.276
		c0,17.497-21.326,22.534-30.178,23.794c-0.107,1.26-0.215,4.897-0.215,6.017c0,8.54,2.135,16.237,8.639,16.237
		c6.398,0,12.051-5.879,17.275-15.956L462.35,73.52z M453.926,37.968c0-4.199-1.492-6.719-4.158-6.719
		c-6.396,0-13.223,13.437-15.035,29.534C446.889,57.843,453.926,48.886,453.926,37.968z"></path>
        <path class="logo-path-b" d="M486.449,33.769l-8.529,46.188c-0.533,2.939-0.533,5.6,1.387,5.6c2.771,0,7.037-6.158,10.236-13.157l2.24,2.239
		c-4.586,11.477-10.984,20.015-19.621,20.015c-5.652,0-8.531-5.18-6.506-15.536l8.639-45.348h-7.572l1.066-5.318h7.357l2.453-12.177
		l12.902-7.277l0.854,0.559l-3.945,18.896h11.09l-1.172,5.318H486.449z"></path>
</g>
    <g>
	<path class="logo-path-c" d="M42.431,108.818h-5.625v3.828h6.602V115h-9.531v-14.219h9.512v2.373h-6.582v3.389h5.625V108.818z"></path>
        <path class="logo-path-c" d="M54.38,111.475l3.223-10.693h3.262L55.913,115h-3.057l-4.932-14.219h3.252L54.38,111.475z"></path>
        <path class="logo-path-c" d="M74.757,108.818h-5.625v3.828h6.602V115h-9.531v-14.219h9.512v2.373h-6.582v3.389h5.625V108.818z"></path>
        <path class="logo-path-c" d="M86.716,109.795h-2.334V115h-2.93v-14.219h5.283c1.68,0,2.975,0.374,3.887,1.123s1.367,1.807,1.367,3.174
		c0,0.97-0.21,1.779-0.63,2.427s-1.056,1.164-1.909,1.548l3.076,5.811V115h-3.145L86.716,109.795z M84.382,107.422h2.363
		c0.736,0,1.305-0.188,1.709-0.562s0.605-0.891,0.605-1.548c0-0.671-0.19-1.198-0.571-1.582s-0.965-0.576-1.753-0.576h-2.354
		V107.422z"></path>
        <path class="logo-path-c" d="M106.771,108.818h-5.625v3.828h6.602V115h-9.531v-14.219h9.512v2.373h-6.582v3.389h5.625V108.818z"></path>
        <path class="logo-path-c" d="M124.364,103.154h-4.355V115h-2.93v-11.846h-4.297v-2.373h11.582V103.154z"></path>
        <path class="logo-path-c" d="M140.894,103.154h-4.355V115h-2.93v-11.846h-4.297v-2.373h11.582V103.154z"></path>
        <path class="logo-path-c" d="M144.591,118.564l-1.475-0.771l0.352-0.635c0.436-0.794,0.661-1.585,0.674-2.373v-2.188h2.383l-0.01,1.953
		c-0.006,0.723-0.189,1.452-0.547,2.188S145.151,118.083,144.591,118.564z"></path>
        <path class="logo-path-c" d="M172.981,110.898l1.914-10.117h2.92L174.661,115h-2.949l-2.314-9.512L167.083,115h-2.949l-3.154-14.219h2.92l1.924,10.098
		l2.344-10.098h2.48L172.981,110.898z"></path>
        <path class="logo-path-c" d="M191.005,112.07h-5.137l-0.977,2.93h-3.115l5.293-14.219h2.715L195.106,115h-3.115L191.005,112.07z M186.659,109.697h3.555
		l-1.787-5.322L186.659,109.697z"></path>
        <path class="logo-path-c" d="M207.808,111.27c0-0.554-0.195-0.979-0.586-1.274s-1.094-0.608-2.109-0.938s-1.82-0.652-2.412-0.972
		c-1.615-0.872-2.422-2.048-2.422-3.525c0-0.769,0.216-1.453,0.649-2.056s1.055-1.072,1.865-1.411s1.72-0.508,2.729-0.508
		c1.016,0,1.92,0.184,2.715,0.552s1.411,0.887,1.851,1.558s0.659,1.433,0.659,2.285h-2.93c0-0.651-0.205-1.157-0.615-1.519
		s-0.986-0.542-1.729-0.542c-0.716,0-1.273,0.151-1.67,0.454s-0.596,0.701-0.596,1.196c0,0.462,0.233,0.85,0.698,1.162
		s1.151,0.605,2.056,0.879c1.667,0.501,2.881,1.123,3.643,1.865s1.143,1.667,1.143,2.773c0,1.23-0.465,2.195-1.396,2.896
		s-2.184,1.05-3.76,1.05c-1.094,0-2.09-0.2-2.988-0.601s-1.583-0.949-2.056-1.646s-0.708-1.504-0.708-2.422h2.939
		c0,1.569,0.938,2.354,2.812,2.354c0.697,0,1.24-0.142,1.631-0.425S207.808,111.777,207.808,111.27z"></path>
        <path class="logo-path-c" d="M228.302,115h-2.93v-6.094h-5.713V115h-2.93v-14.219h2.93v5.762h5.713v-5.762h2.93V115z"></path>
        <path class="logo-path-c" d="M237.976,115h-2.93v-14.219h2.93V115z"></path>
        <path class="logo-path-c" d="M256.253,115h-2.93l-5.703-9.355V115h-2.93v-14.219h2.93l5.713,9.375v-9.375h2.92V115z"></path>
        <path class="logo-path-c" d="M274.062,113.203c-0.527,0.632-1.272,1.121-2.236,1.47s-2.031,0.522-3.203,0.522c-1.23,0-2.31-0.269-3.237-0.806
		s-1.644-1.316-2.148-2.339s-0.764-2.224-0.776-3.604v-0.967c0-1.419,0.239-2.648,0.718-3.687s1.169-1.833,2.07-2.383
		s1.958-0.825,3.169-0.825c1.687,0,3.005,0.402,3.955,1.206s1.514,1.975,1.689,3.511h-2.852c-0.13-0.813-0.418-1.409-0.864-1.787
		s-1.06-0.566-1.841-0.566c-0.996,0-1.755,0.374-2.275,1.123s-0.784,1.862-0.791,3.34v0.908c0,1.491,0.283,2.617,0.85,3.379
		s1.396,1.143,2.49,1.143c1.101,0,1.885-0.234,2.354-0.703v-2.451h-2.666v-2.158h5.596V113.203z"></path>
        <path class="logo-path-c" d="M291.138,103.154h-4.355V115h-2.93v-11.846h-4.297v-2.373h11.582V103.154z"></path>
        <path class="logo-path-c" d="M308.214,108.213c0,1.399-0.247,2.627-0.742,3.682s-1.203,1.868-2.124,2.441s-1.978,0.859-3.169,0.859
		c-1.179,0-2.229-0.283-3.154-0.85s-1.641-1.375-2.148-2.427s-0.765-2.261-0.771-3.628v-0.703c0-1.399,0.252-2.632,0.757-3.696
		s1.218-1.882,2.139-2.451s1.975-0.854,3.159-0.854s2.238,0.285,3.159,0.854s1.634,1.387,2.139,2.451s0.757,2.293,0.757,3.687
		V108.213z M305.245,107.568c0-1.491-0.267-2.624-0.801-3.398s-1.296-1.162-2.285-1.162c-0.983,0-1.741,0.383-2.275,1.147
		s-0.804,1.887-0.811,3.364v0.693c0,1.452,0.267,2.578,0.801,3.379s1.302,1.201,2.305,1.201c0.983,0,1.738-0.386,2.266-1.157
		s0.794-1.896,0.801-3.374V107.568z"></path>
        <path class="logo-path-c" d="M325.905,115h-2.93l-5.703-9.355V115h-2.93v-14.219h2.93l5.713,9.375v-9.375h2.92V115z"></path>
</g>
</svg>
