<svg width="200" height="30" viewBox="0 0 200 30" fill="none" xmlns="http://www.w3.org/2000/svg">
<path d="M191.67 9.782C193.178 8.457 194.53 7.719 195.356 7.719C196.59 7.719 197.506 8.817 198.422 8.817C198.88 8.817 199.225 8.449 199.406 8.087L199.75 8.347C198.72 9.777 197.87 11.057 197.163 12.213C196.178 10.857 194.507 9.886 193.363 9.886C192.193 9.886 192.011 10.686 192.469 11.351C193.336 12.521 195.419 13.744 196.979 14.989C198.283 16.012 199.061 16.989 199.061 18.436C199.061 20.283 196.865 22.199 195.284 24.803C193.727 23.973 191.669 23.069 190.067 23.069C188.947 23.069 188.28 23.602 188.027 24.305L187.844 24.205C188.346 21.617 189.262 19.459 191.071 19.459C192.494 19.459 194.116 20.519 195.903 21.889C196.175 22.102 196.383 22.035 196.52 21.774C196.775 21.188 196.68 20.076 195.42 19.01C194.024 17.83 192.562 17.162 191.394 16.308C189.746 15.092 189.377 14.134 189.377 13.176C189.379 12.226 190.021 11.226 191.67 9.782ZM148.86 7.595L151.22 3.271L153.322 4.871L149.57 8.184L148.86 7.595ZM152.8 18.79C152.8 20.917 153.303 21.666 154.264 21.666C154.791 21.666 155.112 21.389 155.112 21.389L155.297 21.874C154.222 22.624 152.343 24.119 151.519 24.886C149.229 22.843 148.725 22.086 148.725 18.773V12.653C148.725 11.593 148.315 11.098 147.397 10.693V10.619C148.315 10.069 150.052 9.059 151.405 8.182C152.505 9.457 152.801 10.282 152.801 12.352L152.8 18.79ZM182.81 24.443C182.237 24.803 181.758 24.803 181.163 24.496C178.735 23.251 177.867 21.329 177.867 18.116V12.256C177.867 11.896 177.957 11.659 178.277 11.49L184.461 8.11C184.734 7.97 184.873 8.014 185.011 8.228L187.963 13.043C188.123 13.316 188.103 13.493 187.85 13.669C185.81 15.172 182.95 17.109 181.644 17.933L181.579 17.056C182.425 16.549 183.819 15.626 184.575 14.994C184.805 14.804 184.848 14.617 184.668 14.339L182.378 10.752C182.126 10.348 181.714 10.567 181.714 10.966V17.109C181.714 19.707 182.676 21.411 184.527 21.411C186.337 21.411 187.594 19.855 188.143 18.794L188.211 18.814V20.231C186.654 21.696 184.521 23.403 182.806 24.441L182.81 24.443ZM61.622 7.91C60.342 6.117 57.799 3.625 55.327 3.625C53.701 3.625 52.922 4.64 52.922 5.475C52.922 6.601 53.862 7.36 56.312 8.935C61.165 12.057 64.942 14.215 64.942 18.361C64.942 22.686 60.296 24.233 58.942 27.477H58.852C55.83 23.09 50.542 22.219 48.392 24.165L48.232 24.048C48.504 22.076 49.695 18.538 52.557 18.538C55.19 18.538 58.669 22.038 60.797 22.928C61.119 23.055 61.393 22.978 61.599 22.728C61.873 22.391 62.034 21.862 62.034 21.022C62.034 15.19 49.947 13.525 49.947 8.856C49.947 7.759 50.954 5.786 52.373 4.046C54.206 1.775 56.082 0.767996 58.12 0.767996C61.278 0.767996 62.836 3.125 64.164 3.125C64.712 3.125 65.079 2.831 65.424 2.365L65.744 2.729C64.276 4.259 62.468 6.706 61.622 7.912V7.91ZM61.232 21.102C61.232 15.916 49.007 14.297 49.007 8.854L48.87 8.874C48 14.974 60.018 16.541 61.095 21.136L61.232 21.102ZM103.307 17.455C103.307 20.057 103.834 21.145 105.074 21.145C105.711 21.145 106.169 20.735 106.169 20.735L106.354 21.209C105.324 22.205 103.537 24.032 102.759 24.882C101.132 23.692 99.921 22.416 99.599 20.952L99.485 20.599V8.456C99.485 6.852 99.185 6.1 98.089 5.819V5.747C99.806 4.789 101.589 3.674 103.215 2.599L103.308 2.652L103.307 17.455ZM96.21 17.432C96.21 20.286 96.828 21.209 98.065 21.209C99.211 21.209 99.875 20.039 99.875 20.039L100.148 20.719C99.166 21.615 96.598 24.049 95.778 24.886C93.168 23.124 92.366 21.712 92.366 18.39V8.458C92.366 6.853 92.066 6.101 90.993 5.82V5.747C92.685 4.789 94.495 3.675 96.097 2.6L96.212 2.653L96.21 17.432ZM105.322 10.488L106.146 8.803H89.503L90.145 10.488H105.322ZM117.936 24.496C115.508 23.251 114.641 21.329 114.641 18.116V12.256C114.641 11.896 114.734 11.659 115.051 11.491L121.257 8.111C121.507 7.971 121.667 8.015 121.807 8.229L124.757 13.044C124.917 13.317 124.871 13.494 124.644 13.67C122.607 15.173 119.744 17.11 118.417 17.934L118.371 17.057C119.219 16.55 120.614 15.627 121.369 14.995C121.575 14.805 121.643 14.618 121.463 14.339L119.173 10.752C118.943 10.4 118.51 10.567 118.51 10.965V17.109C118.51 19.709 119.538 21.484 121.415 21.484C123.201 21.484 124.687 19.754 125.285 18.684L125.351 18.704V20.12C123.748 21.592 121.324 23.402 119.604 24.443C119.032 24.805 118.554 24.805 117.937 24.496H117.936ZM111.068 17.743C111.068 20.343 111.73 21.153 113.034 21.153C113.699 21.153 114.18 20.733 114.18 20.733L114.364 21.209C113.356 22.139 111.41 24.032 110.634 24.886C107.907 22.916 107.176 21.904 107.176 18.39V6.948C107.176 5.348 106.876 4.588 105.803 4.318V4.238C107.496 3.288 109.353 2.168 110.953 1.101L111.069 1.145L111.068 17.743ZM85.384 14.423C83.438 15.813 79.888 17.766 78.264 18.738C78.014 18.878 77.944 19.076 77.944 19.39C77.944 21.773 78.63 23.64 80.256 24.464C80.76 24.722 81.196 24.707 81.628 24.36L85.498 21.223L85.246 20.43C84.903 21.034 84.308 21.548 83.554 21.548C82.318 21.548 81.769 20.088 81.769 17.981C81.769 17.765 81.789 17.646 81.949 17.529C82.796 16.904 84.489 15.847 85.451 15.346L85.384 14.423ZM88.862 18.133C88.862 19.683 88.955 20.298 89.342 20.923C89.594 21.353 89.982 21.581 90.372 21.581C90.832 21.581 91.082 21.301 91.082 21.301L91.288 21.781C90.394 22.465 88.518 24.077 87.646 24.886C86.092 23.464 85.266 22.538 85.039 20.916V13.616C85.039 12.971 84.899 12.483 84.419 12.099C83.849 11.629 82.747 10.907 82.084 10.569C81.696 10.369 81.421 10.569 81.421 10.989V13.557C81.421 14.139 81.238 14.515 80.825 14.73L78.378 15.974C78.215 16.062 78.101 15.989 78.101 15.806V12.253C78.101 11.989 78.169 11.826 78.398 11.685L84.008 8.063C84.235 7.923 84.326 7.923 84.556 8.063C85.656 8.753 87.509 10.093 88.586 10.941C88.79 11.097 88.859 11.311 88.859 11.541L88.862 18.133ZM71.487 24.443C70.891 24.803 70.413 24.803 69.817 24.496C67.389 23.251 66.52 21.329 66.52 18.116V12.256C66.52 11.896 66.61 11.659 66.93 11.49L73.135 8.11C73.385 7.97 73.545 8.014 73.663 8.228L76.613 13.043C76.797 13.316 76.75 13.493 76.499 13.669C74.461 15.172 71.601 17.109 70.296 17.933L70.249 17.056C71.095 16.549 72.493 15.626 73.226 14.994C73.456 14.804 73.499 14.617 73.319 14.339L71.029 10.752C70.779 10.348 70.365 10.567 70.365 10.966V17.109C70.365 19.707 71.349 21.411 73.205 21.411C74.99 21.411 76.245 19.855 76.797 18.794L76.867 18.814V20.231C75.311 21.696 73.181 23.403 71.487 24.441V24.443ZM37.45 24.496C35.044 23.251 34.175 21.329 34.175 18.116V12.256C34.175 11.896 34.245 11.659 34.585 11.491L40.768 8.111C41.02 7.971 41.178 8.015 41.318 8.229L44.268 13.044C44.431 13.317 44.408 13.494 44.156 13.67C42.118 15.173 39.258 17.11 37.926 17.934L37.883 17.057C38.731 16.55 40.126 15.627 40.88 14.995C41.11 14.805 41.157 14.618 40.973 14.339L38.683 10.752C38.456 10.4 38.02 10.567 38.02 10.965V17.109C38.02 19.709 39.075 21.484 40.927 21.484C42.737 21.484 44.224 19.754 44.795 18.684L44.865 18.704V20.12C43.262 21.592 40.835 23.402 39.12 24.443C38.547 24.805 38.065 24.805 37.45 24.496ZM24.444 18.59C24.444 21.036 24.811 21.72 26.117 22.84L23.097 25.504C21.127 23.652 20.577 22.692 20.555 19.2V9.95C20.555 8.352 20.348 7.563 19.248 7.365V7.293C20.875 6.298 22.728 5.003 24.332 3.799L24.444 3.851V10.539C24.444 10.891 24.674 11.069 25.062 10.839C26.162 10.199 27.764 9.199 28.817 8.491C28.957 8.395 29.069 8.373 29.229 8.455C31.129 9.347 31.907 10.798 31.907 12.183V19.416C31.907 22.916 31.337 24.081 25.451 29.796L24.721 29.294C27.535 27.416 27.831 25.067 27.831 21.069V13.942C27.831 13.087 27.811 12.512 27.627 11.99C27.42 11.425 27.077 11.02 26.483 11.02C25.773 11.02 24.925 11.78 24.443 12.358L24.444 18.59ZM0.845 7.608C0.799 6.895 1.005 6.168 1.53 5.598C2.148 4.942 3.042 4.648 4.507 4.648C7.207 4.648 12.015 6.688 16.204 6.688C19.866 6.688 22.362 3.124 23.301 1.232L22.91 0.104996L22.842 0.111996C22.612 1.682 21.265 3.616 18.264 3.616C15.426 3.616 9.819 1.436 6.888 1.436C2.676 1.437 0.616 4.53 0.25 7.064L0.8 7.634" fill="black"/>
<path d="M14.5784 6.002H15.4724V24.285H14.5784V6.002ZM8.03237 6.18L8.48937 6.46C6.54337 7.89 5.00937 10.605 5.00937 13.97C5.00937 19.576 8.25937 24.222 13.5264 24.222C16.5464 24.222 18.4464 22.667 19.3844 21.144L19.4524 21.16L19.5454 22.49C18.0784 23.825 14.8994 26.16 10.9394 26.16C4.75737 26.16 1.02637 21.926 1.02637 16.357C1.02637 11.161 4.64337 7.934 8.03137 6.181L8.03237 6.18ZM13.0004 5.966L10.6874 7.248C9.24737 8.038 8.94937 8.882 8.94937 10.48C8.94937 11.91 9.33737 14.347 9.33737 16.283C9.33737 18.273 8.92337 18.896 7.22737 19.615L7.52737 20.142C8.62737 19.635 10.5494 18.677 11.8094 17.882C12.8164 17.234 12.9994 16.872 12.9994 15.834V9.552C12.9994 7.512 13.0454 6.88 13.4354 6.336L13.0004 5.966ZM167.475 19.128C167.475 21.131 168.115 21.84 168.913 21.84C169.393 21.84 169.719 21.567 169.719 21.567L169.899 22.05C169.005 22.654 167.015 24.143 166.144 24.887C163.832 22.692 163.398 21.927 163.398 18.612V13.945C163.398 13.089 163.35 12.515 163.168 11.993C162.984 11.428 162.641 11.02 162.045 11.02C161.337 11.02 160.512 11.735 160.03 12.32V19.13C160.03 21.133 160.693 21.842 161.495 21.842C161.975 21.842 162.273 21.568 162.273 21.568L162.457 22.052C161.565 22.656 159.595 24.144 158.701 24.89C156.413 22.693 155.975 21.965 155.975 18.65V12.658C155.975 11.598 155.542 11.102 154.625 10.698V10.62C155.542 10.07 157.303 9.06 158.63 8.183C159.23 8.979 159.64 9.856 159.846 10.74C159.911 11.05 160.189 11.11 160.46 10.96C161.628 10.304 163.255 9.237 164.374 8.493C164.514 8.397 164.627 8.375 164.787 8.457C166.047 9.054 166.805 9.907 167.191 10.797C167.329 11.099 167.581 11.145 167.855 10.983C169.07 10.283 170.67 9.253 171.793 8.493C171.951 8.389 172.046 8.375 172.203 8.457C174.333 9.437 174.885 10.6 174.885 13.227V19.129C174.885 21.131 175.548 21.839 176.348 21.839C176.828 21.839 177.128 21.566 177.128 21.566L177.312 22.05C176.418 22.655 174.45 24.143 173.558 24.89C171.268 22.692 170.833 21.927 170.833 18.614V13.946C170.833 13.09 170.786 12.516 170.603 11.994C170.419 11.429 170.053 11.021 169.459 11.021C168.772 11.021 167.949 11.737 167.469 12.321L167.475 19.128ZM128.738 7.608C128.691 6.895 128.9 6.166 129.426 5.598C130.044 4.942 130.938 4.648 132.403 4.648C135.103 4.648 139.911 6.688 144.103 6.688C147.763 6.688 150.26 3.124 151.196 1.232L150.81 0.104996L150.74 0.111996C150.534 1.682 149.162 3.616 146.162 3.616C143.322 3.616 137.715 1.436 134.785 1.436C130.575 1.436 128.535 4.53 128.145 7.063L128.695 7.633" fill="black"/>
<path d="M142.477 6.002H143.367V24.285H142.477V6.002ZM135.93 6.18L136.387 6.46C134.442 7.89 132.907 10.605 132.907 13.97C132.907 19.576 136.155 24.222 141.421 24.222C144.447 24.222 146.348 22.667 147.283 21.144L147.353 21.16L147.441 22.49C145.981 23.825 142.795 26.16 138.836 26.16C132.656 26.16 128.926 21.926 128.926 16.357C128.924 11.161 132.542 7.934 135.931 6.181L135.93 6.18ZM140.918 5.966L138.582 7.248C137.142 8.038 136.844 8.882 136.844 10.48C136.844 11.91 137.234 14.347 137.234 16.283C137.234 18.273 136.821 18.896 135.127 19.615L135.427 20.142C136.547 19.635 138.447 18.677 139.707 17.882C140.713 17.234 140.897 16.872 140.897 15.834V9.552C140.897 7.512 140.944 6.88 141.334 6.336" fill="black"/>
<path d="M105.318 10.487L106.143 8.80299H89.5068L90.1468 10.487H105.318Z" fill="#010101"/>
</svg>
