<!--?xml version="1.0" encoding="utf-8"?-->
<!-- Generator: Adobe Illustrator 16.0.4, SVG Export Plug-In . SVG Version: 6.00 Build 0)  -->

<svg version="1.1" id="Layer_1" xmlns="http://www.w3.org/2000/svg" xmlns:xlink="http://www.w3.org/1999/xlink" x="0px" y="0px" width="497px" height="89px" viewBox="0 0 497 89" enable-background="0 0 497 89" xml:space="preserve">
<g>
	<path class="logo-path-a" d="M20.028,87.438c-12.474,0-19.907-7.309-19.907-19.783v-7.307h13.985v7.812c0,3.401,1.765,5.67,5.166,5.67
		c3.276,0,4.915-2.017,4.915-5.544c0-6.805-4.033-11.971-9.703-19.026C8.185,42.203,0.499,32.123,0.499,21.665
		c0-11.466,6.677-21.294,20.285-21.294c10.836,0,18.144,7.812,18.144,19.656v7.308H24.942v-8.316c0-3.024-1.764-4.788-4.158-4.788
		s-4.661,1.638-4.661,4.914c0,8.064,4.031,11.592,9.827,19.278c6.804,8.19,13.86,17.011,13.86,27.847
		C39.81,79.499,31.242,87.438,20.028,87.438"></path>
	<polygon class="logo-path-a" points="41.479,85.799 41.479,1.883 75.625,1.883 75.625,16.121 57.607,16.121 57.607,36.155
		69.452,36.155 69.452,49.259 57.607,49.259 57.234,71.057 75.355,71.057 73.252,85.799 	"></polygon>
	<path class="logo-path-a" d="M96.186,26.579l-3.654,32.634h6.426L96.186,26.579z M101.478,85.799l-1.135-13.482h-9.575l-1.387,13.482
		H74.766L86.988,1.883h18.647l12.096,83.916H101.478z"></path>
	<polygon class="logo-path-a" points="138.444,16.625 138.444,85.799 122.316,85.799 122.316,16.625 110.724,16.625 110.724,1.883
		146.036,1.883 146.036,16.625 	"></polygon>
	<polygon class="logo-path-a" points="171.267,16.625 171.267,85.799 155.139,85.799 155.139,16.625 147.546,16.625 147.546,1.883
		182.858,1.883 182.858,16.625 	"></polygon>
	<polygon class="logo-path-a" points="184.267,85.799 184.267,1.883 200.395,1.883 200.395,71.436 217.405,71.436 217.405,85.799 	"></polygon>
	<polygon class="logo-path-a" points="218.941,85.799 218.941,1.883 250.676,1.883 252.775,16.121 235.069,16.121 235.069,36.155
		246.912,36.155 246.912,49.259 235.069,49.259 235.069,71.057 253.086,71.057 253.086,85.799 	"></polygon>
	<polygon class="logo-path-b" points="302.879,85.799 289.145,85.799 283.727,42.203 277.805,85.799 264.449,85.799 252.102,1.883
		267.852,1.883 273.143,52.913 278.939,1.883 290.531,1.883 295.822,52.913 301.619,1.883 316.109,1.883 	"></polygon>
	<polygon class="logo-path-b" points="316.258,85.799 316.258,1.883 350.404,1.883 350.404,16.121 332.387,16.121 332.387,36.155
		344.23,36.155 344.23,49.259 332.387,49.259 332.387,71.057 350.404,71.057 350.404,85.799 	"></polygon>
	<polygon class="logo-path-b" points="352.197,85.799 352.197,1.883 386.344,1.883 386.344,16.121 368.326,16.121 368.326,36.155
		380.17,36.155 380.17,49.259 368.326,49.259 368.326,71.057 386.344,71.057 386.344,85.799 	"></polygon>
	<polygon class="logo-path-b" points="413.967,85.799 407.793,53.165 404.393,64.631 404.393,85.799 388.139,85.799 388.139,1.883
		404.393,1.883 404.393,38.423 413.59,1.883 429.34,1.883 419.133,37.163 430.221,85.799 	"></polygon>
	<polygon class="logo-path-b" points="431.379,85.799 431.379,1.883 447.508,1.883 447.508,71.436 464.518,71.436 464.518,85.799 	"></polygon>
	<polygon class="logo-path-b" points="482.096,51.652 482.096,85.799 465.967,85.799 465.967,51.652 451.98,1.883 468.234,1.883
		475.039,33.257 481.213,1.883 497.088,1.883 	"></polygon>
</g>
</svg>
